<svg version="1.2" xmlns="http://www.w3.org/2000/svg" viewBox="0 0 1200 1200" width="1200" height="1200"><defs><linearGradient id="P" gradientUnits="userSpaceOnUse"/><linearGradient id="g1" x1="0" y1="0" x2="1200" y2="1200" href="#P"><stop stop-color="#61598c"/><stop offset="1" stop-color="#81a1c1"/></linearGradient></defs><style>.s0{fill:url(#g1)}</style><path class="s0" d="m0 300c0-165.7 134.3-300 300-300h600c165.7 0 300 134.3 300 300v600c0 165.7-134.3 300-300 300h-600c-165.7 0-300-134.3-300-300z" /><path fill="#ffffff" aria-label="W"  d="m799 278c-6-18-16-29-49-29h-207c-19 0-33 9-33 32c0 7 2 16 5 25l50 165l-32 123l-104-316c-3-10-16-29-49-29h-206c-19 0-34 10-34 33c0 7 1 15 5 24l214 599c7 19 16 45 45 45h82c23 0 36-16 44-46l81-287l88 288c6 19 16 45 45 45h69c24 0 38-16 47-46l194-618c3-11 5-19 5-24c0-10-6-13-18-13h-48c-22 0-24 17-30 40l-79 305zm-284 382l-17 68l-143-438h22c8 0 18 1 23 16zm351 6l-19 73l-120-449h23c11 0 16 3 20 18z" /></svg>